<?xml version="1.0" encoding="UTF-8" standalone="no"?>
<!DOCTYPE svg PUBLIC "-//W3C//DTD SVG 1.1//EN" "http://www.w3.org/Graphics/SVG/1.1/DTD/svg11.dtd">
<svg width="100%" height="100%" viewBox="0 0 159 85" version="1.1" xmlns="http://www.w3.org/2000/svg" xmlns:xlink="http://www.w3.org/1999/xlink" xml:space="preserve" xmlns:serif="http://www.serif.com/" style="fill-rule:evenodd;clip-rule:evenodd;stroke-linecap:round;stroke-linejoin:round;stroke-miterlimit:1.5;">
    <g transform="matrix(0.264583,0,0,0.264583,0,0)">
        <g transform="matrix(1,0,0,1,-468.5,-265)">
            <g id="gelyte">
                <g id="suoliukas">
                    <path d="M766,584L773,551L992,551L1020,479L841,479L816,551L823,584" style="fill:none;stroke:black;stroke-width:1px;"/>
                    <path d="M950,551L942,584" style="fill:none;stroke:black;stroke-width:1px;"/>
                    <path d="M992,551L1000,584" style="fill:none;stroke:black;stroke-width:1px;"/>
                </g>
                <g>
                    <path d="M533.504,521C533.504,521 531.469,494.092 547,480" style="fill:none;stroke:black;stroke-width:1px;"/>
                    <path d="M504,492L532.201,520.201" style="fill:none;stroke:black;stroke-width:1px;"/>
                    <path d="M516,461L516,468C516,468 516.095,476.811 526,485C533.938,491.563 533.5,503 533.5,503L533.5,521" style="fill:none;stroke:black;stroke-width:1px;"/>
                </g>
                <g>
                    <g>
                        <path d="M503.379,425.011C503.379,422.797 505.177,421 507.391,421C509.605,421 511.403,422.797 511.403,425.011C511.403,422.797 513.2,421 515.414,421C517.628,421 519.426,422.797 519.426,425.011C519.426,422.797 521.223,421 523.437,421C525.651,421 527.449,422.797 527.449,425.011C527.449,422.797 529.246,421 531.46,421C533.674,421 535.471,422.797 535.471,425.011L535.471,445.989C535.471,446.049 535.47,446.109 535.467,446.169C535.47,446.279 535.471,446.389 535.471,446.5C535.471,455.607 526.444,463 515.324,463C504.204,463 495.176,455.607 495.176,446.5C495.176,446.37 495.178,446.241 495.182,446.112C495.178,446.041 495.176,445.97 495.176,445.898L495.176,425.102C495.176,422.838 497.014,421 499.278,421C501.512,421 503.331,422.789 503.379,425.011Z" style="fill:rgb(247,116,137);"/>
                        <g transform="matrix(1,0,0,1,0.4,-2.9)">
                            <path d="M503,428L503,445" style="fill:none;stroke:black;stroke-width:1px;"/>
                        </g>
                        <g transform="matrix(1,0,0,1,8.13676,-2.9)">
                            <path d="M503,428L503,445" style="fill:none;stroke:black;stroke-width:1px;"/>
                        </g>
                        <g transform="matrix(1,0,0,1,16.2735,-2.9)">
                            <path d="M503,428L503,445" style="fill:none;stroke:black;stroke-width:1px;"/>
                        </g>
                        <g transform="matrix(1,0,0,1,24.4103,-2.9)">
                            <path d="M503,428L503,445" style="fill:none;stroke:black;stroke-width:1px;"/>
                        </g>
                    </g>
                    <g transform="matrix(0.802345,0.802345,-0.802345,0.802345,503.971,-303.812)">
                        <path d="M503.379,425.011C503.379,422.797 505.177,421 507.391,421C509.605,421 511.403,422.797 511.403,425.011C511.403,422.797 513.2,421 515.414,421C517.628,421 519.426,422.797 519.426,425.011C519.426,422.797 521.223,421 523.437,421C525.651,421 527.449,422.797 527.449,425.011C527.449,422.797 529.246,421 531.46,421C533.674,421 535.471,422.797 535.471,425.011L535.471,445.989C535.471,446.049 535.47,446.109 535.467,446.169C535.47,446.279 535.471,446.389 535.471,446.5C535.471,455.607 526.444,463 515.324,463C504.204,463 495.176,455.607 495.176,446.5C495.176,446.37 495.178,446.241 495.182,446.112C495.178,446.041 495.176,445.97 495.176,445.898L495.176,425.102C495.176,422.838 497.014,421 499.278,421C501.512,421 503.331,422.789 503.379,425.011Z" style="fill:rgb(247,116,137);"/>
                        <g transform="matrix(1,0,0,1,0.4,-2.9)">
                            <path d="M503,428L503,445" style="fill:none;stroke:black;stroke-width:0.88px;"/>
                        </g>
                        <g transform="matrix(1,0,0,1,8.13676,-2.9)">
                            <path d="M503,428L503,445" style="fill:none;stroke:black;stroke-width:0.88px;"/>
                        </g>
                        <g transform="matrix(1,0,0,1,16.2735,-2.9)">
                            <path d="M503,428L503,445" style="fill:none;stroke:black;stroke-width:0.88px;"/>
                        </g>
                        <g transform="matrix(1,0,0,1,24.4103,-2.9)">
                            <path d="M503,428L503,445" style="fill:none;stroke:black;stroke-width:0.88px;"/>
                        </g>
                    </g>
                    <g transform="matrix(0.611869,-0.611869,0.611869,0.611869,-93.5505,524.863)">
                        <path d="M503.379,425.011C503.379,422.797 505.177,421 507.391,421C509.605,421 511.403,422.797 511.403,425.011C511.403,422.797 513.2,421 515.414,421C517.628,421 519.426,422.797 519.426,425.011C519.426,422.797 521.223,421 523.437,421C525.651,421 527.449,422.797 527.449,425.011C527.449,422.797 529.246,421 531.46,421C533.674,421 535.471,422.797 535.471,425.011L535.471,445.989C535.471,446.049 535.47,446.109 535.467,446.169C535.47,446.279 535.471,446.389 535.471,446.5C535.471,455.607 526.444,463 515.324,463C504.204,463 495.176,455.607 495.176,446.5C495.176,446.37 495.178,446.241 495.182,446.112C495.178,446.041 495.176,445.97 495.176,445.898L495.176,425.102C495.176,422.838 497.014,421 499.278,421C501.512,421 503.331,422.789 503.379,425.011Z" style="fill:rgb(247,116,137);"/>
                        <g transform="matrix(1,0,0,1,0.4,-2.9)">
                            <path d="M503,428L503,445" style="fill:none;stroke:black;stroke-width:1.16px;"/>
                        </g>
                        <g transform="matrix(1,0,0,1,8.13676,-2.9)">
                            <path d="M503,428L503,445" style="fill:none;stroke:black;stroke-width:1.16px;"/>
                        </g>
                        <g transform="matrix(1,0,0,1,16.2735,-2.9)">
                            <path d="M503,428L503,445" style="fill:none;stroke:black;stroke-width:1.16px;"/>
                        </g>
                        <g transform="matrix(1,0,0,1,24.4103,-2.9)">
                            <path d="M503,428L503,445" style="fill:none;stroke:black;stroke-width:1.16px;"/>
                        </g>
                    </g>
                </g>
                <path d="M534.229,538.01C547.414,538.381 558,548.764 558,561.5C558,574.47 547.022,585 533.5,585C519.978,585 509,574.47 509,561.5C509,548.764 519.586,538.381 532.771,538.01L519.5,520L547.5,520L534.229,538.01Z" style="fill:rgb(57,68,205);"/>
            </g>
            <g id="batas1">
                <g transform="matrix(1,0,0,1,1,0)">
                    <path d="M633,584L633,576C633,576 633.425,555 667,555C687.575,555 704,536.363 704,529L704,516L762,516L762,584L738,584L738,566L707,585L633,584Z" style="fill:white;"/>
                </g>
                <g transform="matrix(1.03883,-0.692873,0.692873,1.03883,-443.411,403.464)">
                    <path d="M706,596C706,596 696,609.3 696,615C696,620.519 700.481,625 706,625C711.519,625 716,620.519 716,615C716,609.3 706,596 706,596Z" style="fill:none;stroke:rgb(245,205,196);stroke-width:0.8px;"/>
                </g>
            </g>
            <g id="batas2" transform="matrix(0.482013,0.876164,-0.876164,0.482013,801.216,-421.528)">
                <g transform="matrix(1,0,0,1,1,0)">
                    <path d="M633,584L633,576C633,576 633.425,555 667,555C687.575,555 704,536.363 704,529L704,516L762,516L762,584L738,584L738,566L707,585L633,584Z" style="fill:white;"/>
                </g>
                <g transform="matrix(0.478819,-1.15324,1.24936,0.518725,-378.78,1038.85)">
                    <path d="M706,596C706,596 696,609.839 696,615.769C696,620.864 700.481,625 706,625C711.519,625 716,620.864 716,615.769C716,609.839 706,596 706,596Z" style="fill:none;stroke:rgb(245,205,196);stroke-width:0.77px;"/>
                </g>
            </g>
            <g transform="matrix(1,0,0,0.994918,-3,1.79819)">
                <path d="M681,434.912L822,356C822,356 831.592,351.127 848,356C861.338,359.962 871,377 871,377L954,493L966,493L954,531.5C954,531.5 944.629,549.059 920,550.514C899.46,551.728 890,540.5 890,540.5L822,442L712,500.99L681,434.912Z" style="fill:white;fill-opacity:0.5;"/>
            </g>
            <path d="M686,520L763,520L763,495L819,535C819,535 839.997,557.679 880,551.5C924.475,544.63 916,536 916,536L849,446L820,441L749,390C749,390 731.836,377.36 709.836,385.427C691.224,392.251 689,412 689,412L686,520Z" style="fill:rgb(216,170,168);"/>
            <g>
                <path d="M820.5,333C820.5,333 811,317.952 811,304C811,290.048 823.29,266 848,266C872.71,266 934.297,265 934.297,265C936.919,264.987 939.684,266.024 941.981,267.181C949.123,270.778 953.925,277.667 956.895,284.905C958.089,287.815 958.971,290.841 960.13,293.765C961.625,297.535 963.304,301.242 964.477,305.131C965.72,309.254 966.506,313.802 965.909,318.107C965.684,319.735 965.052,322.3 962.898,321.95C960.005,321.481 958.056,318.997 956.758,316.567C954.344,312.045 953.577,306.582 950.58,302.38C951.074,309.23 945.103,313.946 939.489,316.464C937.261,317.464 933.375,318.595 931.197,316.775C929.984,315.761 930.792,313.841 931.307,312.654C932.267,310.443 933.712,308.698 935.242,306.871C935.886,306.102 937.182,304.923 937.469,303.939C937.511,303.795 937.181,304.026 937.038,304.07C936.745,304.16 936.451,304.245 936.157,304.332C935.328,304.575 934.517,304.798 933.647,304.836C930.84,304.958 928.772,304.191 926.293,302.77C923.093,300.934 922.494,297.703 922.584,294.31C922.637,292.298 922.897,290.463 924.395,288.967C922.775,288.955 920.987,289.424 919.549,289.736C914.642,290.8 909.957,292.649 905.135,294.017C889.559,298.436 873.694,302.018 858,306C858,306 854,308 854,308L857,311L820.5,333" style="fill:rgb(247,116,137);"/>
                <path d="M856,308L838,305" style="fill:none;stroke:black;stroke-width:1px;"/>
                <path d="M924,289L932,297" style="fill:none;stroke:black;stroke-width:1px;"/>
                <path d="M952,305L951,297" style="fill:none;stroke:black;stroke-width:1px;"/>
            </g>
            <path d="M974,450L1024,490.757L1028,437L990,415L954,403L973.203,449L974,450Z" style="fill:white;"/>
            <g transform="matrix(1.14081,0.636045,-0.412082,0.739107,20.007,-506.289)">
                <rect x="947" y="364.546" width="17.346" height="40.454" style="fill:rgb(247,116,137);"/>
            </g>
            <g>
                <clipPath id="_clip1">
                    <path d="M686,520L763,520L763,495L819,535C819,535 839.997,557.679 880,551.5C924.475,544.63 916,536 916,536L849,446L820,441L749,390C749,390 731.836,377.36 709.836,385.427C691.224,392.251 689,412 689,412L686,520Z"/>
                </clipPath>
                <g clip-path="url(#_clip1)">
                    <g>
                        <path d="M763,496L763,467.651" style="fill:none;stroke:black;stroke-opacity:0.5;stroke-width:1px;"/>
                        <path d="M763,496L771,475" style="fill:none;stroke:black;stroke-opacity:0.5;stroke-width:1px;"/>
                    </g>
                    <g transform="matrix(0.730916,0.730916,-0.730916,0.730916,754.981,-184.932)">
                        <path d="M503.379,425.011C503.379,422.797 505.177,421 507.391,421C509.605,421 511.403,422.797 511.403,425.011C511.403,422.797 513.2,421 515.414,421C517.628,421 519.426,422.797 519.426,425.011C519.426,422.797 521.223,421 523.437,421C525.651,421 527.449,422.797 527.449,425.011C527.449,422.797 529.246,421 531.46,421C533.674,421 535.471,422.797 535.471,425.011L535.471,445.989C535.471,446.049 535.47,446.109 535.467,446.169C535.47,446.279 535.471,446.389 535.471,446.5C535.471,455.607 526.444,463 515.324,463C504.204,463 495.176,455.607 495.176,446.5C495.176,446.37 495.178,446.241 495.182,446.112C495.178,446.041 495.176,445.97 495.176,445.898L495.176,425.102C495.176,422.838 497.014,421 499.278,421C501.512,421 503.331,422.789 503.379,425.011Z" style="fill:rgb(250,214,104);"/>
                        <g transform="matrix(1,0,0,1,0.4,-2.9)">
                            <path d="M503,428L503,445" style="fill:none;stroke:black;stroke-width:0.97px;"/>
                        </g>
                        <g transform="matrix(1,0,0,1,8.13676,-2.9)">
                            <path d="M503,428L503,445" style="fill:none;stroke:black;stroke-width:0.97px;"/>
                        </g>
                        <g transform="matrix(1,0,0,1,16.2735,-2.9)">
                            <path d="M503,428L503,445" style="fill:none;stroke:black;stroke-width:0.97px;"/>
                        </g>
                        <g transform="matrix(1,0,0,1,24.4103,-2.9)">
                            <path d="M503,428L503,445" style="fill:none;stroke:black;stroke-width:0.97px;"/>
                        </g>
                    </g>
                    <g transform="matrix(1.11022e-16,-1.03367,1.03367,1.11022e-16,281.41,1023.64)">
                        <path d="M503.379,425.011C503.379,422.797 505.177,421 507.391,421C509.605,421 511.403,422.797 511.403,425.011C511.403,422.797 513.2,421 515.414,421C517.628,421 519.426,422.797 519.426,425.011C519.426,422.797 521.223,421 523.437,421C525.651,421 527.449,422.797 527.449,425.011C527.449,422.797 529.246,421 531.46,421C533.674,421 535.471,422.797 535.471,425.011L535.471,445.989C535.471,446.049 535.47,446.109 535.467,446.169C535.47,446.279 535.471,446.389 535.471,446.5C535.471,455.607 526.444,463 515.324,463C504.204,463 495.176,455.607 495.176,446.5C495.176,446.37 495.178,446.241 495.182,446.112C495.178,446.041 495.176,445.97 495.176,445.898L495.176,425.102C495.176,422.838 497.014,421 499.278,421C501.512,421 503.331,422.789 503.379,425.011Z" style="fill:rgb(250,214,104);"/>
                        <g transform="matrix(1,0,0,1,0.4,-2.9)">
                            <path d="M503,428L503,445" style="fill:none;stroke:black;stroke-width:0.97px;"/>
                        </g>
                        <g transform="matrix(1,0,0,1,8.13676,-2.9)">
                            <path d="M503,428L503,445" style="fill:none;stroke:black;stroke-width:0.97px;"/>
                        </g>
                        <g transform="matrix(1,0,0,1,16.2735,-2.9)">
                            <path d="M503,428L503,445" style="fill:none;stroke:black;stroke-width:0.97px;"/>
                        </g>
                        <g transform="matrix(1,0,0,1,24.4103,-2.9)">
                            <path d="M503,428L503,445" style="fill:none;stroke:black;stroke-width:0.97px;"/>
                        </g>
                    </g>
                    <g transform="matrix(0.730916,0.730916,-0.730916,0.730916,739.727,-254.393)">
                        <path d="M503.379,425.011C503.379,422.797 505.177,421 507.391,421C509.605,421 511.403,422.797 511.403,425.011C511.403,422.797 513.2,421 515.414,421C517.628,421 519.426,422.797 519.426,425.011C519.426,422.797 521.223,421 523.437,421C525.651,421 527.449,422.797 527.449,425.011C527.449,422.797 529.246,421 531.46,421C533.674,421 535.471,422.797 535.471,425.011L535.471,445.989C535.471,446.049 535.47,446.109 535.467,446.169C535.47,446.279 535.471,446.389 535.471,446.5C535.471,455.607 526.444,463 515.324,463C504.204,463 495.176,455.607 495.176,446.5C495.176,446.37 495.178,446.241 495.182,446.112C495.178,446.041 495.176,445.97 495.176,445.898L495.176,425.102C495.176,422.838 497.014,421 499.278,421C501.512,421 503.331,422.789 503.379,425.011Z" style="fill:rgb(250,214,104);"/>
                        <g transform="matrix(1,0,0,1,0.4,-2.9)">
                            <path d="M503,428L503,445" style="fill:none;stroke:black;stroke-width:0.97px;"/>
                        </g>
                        <g transform="matrix(1,0,0,1,8.13676,-2.9)">
                            <path d="M503,428L503,445" style="fill:none;stroke:black;stroke-width:0.97px;"/>
                        </g>
                        <g transform="matrix(1,0,0,1,16.2735,-2.9)">
                            <path d="M503,428L503,445" style="fill:none;stroke:black;stroke-width:0.97px;"/>
                        </g>
                        <g transform="matrix(1,0,0,1,24.4103,-2.9)">
                            <path d="M503,428L503,445" style="fill:none;stroke:black;stroke-width:0.97px;"/>
                        </g>
                    </g>
                    <g transform="matrix(1.03367,0,0,1.03367,181.52,-52.4399)">
                        <path d="M503.379,425.011C503.379,422.797 505.177,421 507.391,421C509.605,421 511.403,422.797 511.403,425.011C511.403,422.797 513.2,421 515.414,421C517.628,421 519.426,422.797 519.426,425.011C519.426,422.797 521.223,421 523.437,421C525.651,421 527.449,422.797 527.449,425.011C527.449,422.797 529.246,421 531.46,421C533.674,421 535.471,422.797 535.471,425.011L535.471,445.989C535.471,446.049 535.47,446.109 535.467,446.169C535.47,446.279 535.471,446.389 535.471,446.5C535.471,455.607 526.444,463 515.324,463C504.204,463 495.176,455.607 495.176,446.5C495.176,446.37 495.178,446.241 495.182,446.112C495.178,446.041 495.176,445.97 495.176,445.898L495.176,425.102C495.176,422.838 497.014,421 499.278,421C501.512,421 503.331,422.789 503.379,425.011Z" style="fill:rgb(250,214,104);"/>
                        <g transform="matrix(1,0,0,1,0.4,-2.9)">
                            <path d="M503,428L503,445" style="fill:none;stroke:black;stroke-width:0.97px;"/>
                        </g>
                        <g transform="matrix(1,0,0,1,8.13676,-2.9)">
                            <path d="M503,428L503,445" style="fill:none;stroke:black;stroke-width:0.97px;"/>
                        </g>
                        <g transform="matrix(1,0,0,1,16.2735,-2.9)">
                            <path d="M503,428L503,445" style="fill:none;stroke:black;stroke-width:0.97px;"/>
                        </g>
                        <g transform="matrix(1,0,0,1,24.4103,-2.9)">
                            <path d="M503,428L503,445" style="fill:none;stroke:black;stroke-width:0.97px;"/>
                        </g>
                    </g>
                    <g transform="matrix(0.714054,0.747399,-0.747399,0.714054,635.577,-241.269)">
                        <path d="M503.379,425.011C503.379,422.797 505.177,421 507.391,421C509.605,421 511.403,422.797 511.403,425.011C511.403,422.797 513.2,421 515.414,421C517.628,421 519.426,422.797 519.426,425.011C519.426,422.797 521.223,421 523.437,421C525.651,421 527.449,422.797 527.449,425.011C527.449,422.797 529.246,421 531.46,421C533.674,421 535.471,422.797 535.471,425.011L535.471,445.989C535.471,446.049 535.47,446.109 535.467,446.169C535.47,446.279 535.471,446.389 535.471,446.5C535.471,455.607 526.444,463 515.324,463C504.204,463 495.176,455.607 495.176,446.5C495.176,446.37 495.178,446.241 495.182,446.112C495.178,446.041 495.176,445.97 495.176,445.898L495.176,425.102C495.176,422.838 497.014,421 499.278,421C501.512,421 503.331,422.789 503.379,425.011Z" style="fill:rgb(250,214,104);"/>
                        <g transform="matrix(1,0,0,1,0.4,-2.9)">
                            <path d="M503,428L503,445" style="fill:none;stroke:black;stroke-width:0.97px;"/>
                        </g>
                        <g transform="matrix(1,0,0,1,8.13676,-2.9)">
                            <path d="M503,428L503,445" style="fill:none;stroke:black;stroke-width:0.97px;"/>
                        </g>
                        <g transform="matrix(1,0,0,1,16.2735,-2.9)">
                            <path d="M503,428L503,445" style="fill:none;stroke:black;stroke-width:0.97px;"/>
                        </g>
                        <g transform="matrix(1,0,0,1,24.4103,-2.9)">
                            <path d="M503,428L503,445" style="fill:none;stroke:black;stroke-width:0.97px;"/>
                        </g>
                    </g>
                </g>
            </g>
            <g transform="matrix(1,0,0,1,2,0)">
                <path d="M811,334L856,308L881,351.303C881,351.303 899.383,380.652 951,387C1002.62,393.348 1000.83,434.5 1000.83,434.5L979,456L977,467.651L973.203,481L940,481L852,394L825,356L811,334Z" style="fill:white;"/>
            </g>
            <path d="M916.645,550.5C916.645,550.5 901.682,550.521 893,550.5C890.754,550.495 889.804,551.161 882,544C874.196,536.839 854.241,498.993 842.468,492.468C833.695,487.606 816.813,469.411 812,460C807.187,450.589 805,431 805,431L820,441L868,453L916.645,550.5Z"/>
            <g transform="matrix(-1,0,0,1,1869.8,0)">
                <path d="M935.5,393L1007,371L1007,460L935.5,481L935.5,393Z" style="fill:rgb(57,68,205);"/>
            </g>
            <g transform="matrix(1,0,0,1,1,1)">
                <path d="M687.714,458.301L677,434L687.454,428.645L687.714,458.301ZM753.721,393.109L821.5,355C821.5,355 829.592,350.127 846,355C859.338,358.962 871,377 871,377L945,480L971,481L954,530.5C954,530.5 948.629,550.059 920,550.514C911.61,550.648 905.089,550.435 900.288,548.397C893.517,545.522 889,540 889,540L820,441L753.721,393.109Z" style="fill:rgb(79,38,36);"/>
            </g>
            <path d="M754.721,394.109L822,356C822,356 831.592,351.127 848,356C861.338,359.962 871,377 871,377L954,493L966,493L954,530.5C954,530.5 948.629,550.059 920,550.514C911.61,550.648 905.089,550.435 900.288,548.397C893.517,545.522 889,540 889,540L820,441L754.721,394.109Z" style="fill:rgb(245,205,196);"/>
            <g>
                <path d="M820,441L814,429" style="fill:none;stroke:black;stroke-width:1px;"/>
                <path d="M821,443L822.5,426" style="fill:none;stroke:black;stroke-width:1px;"/>
            </g>
            <g transform="matrix(1,0,0,1,0,0.584096)">
                <path d="M490.992,583.416L1064.15,583.416" style="fill:none;stroke:black;stroke-width:1px;"/>
            </g>
            <g>
                <clipPath id="_clip2">
                    <path d="M687.714,458.301L679,437L688.454,431.645L687.714,458.301ZM754.721,394.109L822,356C822,356 831.592,351.127 848,356C861.338,359.962 871,377 871,377L954,493L966,493L954,531.5C954,531.5 944.629,549.059 920,550.514C911.623,551.009 905.089,550.435 900.288,548.397C893.517,545.522 889,540 889,540L820,441L754.721,394.109Z"/>
                </clipPath>
                <g clip-path="url(#_clip2)">
                    <g transform="matrix(1.03367,0,0,1.03367,368.144,78.41)">
                        <path d="M503.379,425.011C503.379,422.797 505.177,421 507.391,421C509.605,421 511.403,422.797 511.403,425.011C511.403,422.797 513.2,421 515.414,421C517.628,421 519.426,422.797 519.426,425.011C519.426,422.797 521.223,421 523.437,421C525.651,421 527.449,422.797 527.449,425.011C527.449,422.797 529.246,421 531.46,421C533.674,421 535.471,422.797 535.471,425.011L535.471,445.989C535.471,446.049 535.47,446.109 535.467,446.169C535.47,446.279 535.471,446.389 535.471,446.5C535.471,455.607 526.444,463 515.324,463C504.204,463 495.176,455.607 495.176,446.5C495.176,446.37 495.178,446.241 495.182,446.112C495.178,446.041 495.176,445.97 495.176,445.898L495.176,425.102C495.176,422.838 497.014,421 499.278,421C501.512,421 503.331,422.789 503.379,425.011Z" style="fill:rgb(250,214,104);"/>
                        <g transform="matrix(1,0,0,1,0.4,-2.9)">
                            <path d="M503,428L503,445" style="fill:none;stroke:black;stroke-width:0.97px;"/>
                        </g>
                        <g transform="matrix(1,0,0,1,8.13676,-2.9)">
                            <path d="M503,428L503,445" style="fill:none;stroke:black;stroke-width:0.97px;"/>
                        </g>
                        <g transform="matrix(1,0,0,1,16.2735,-2.9)">
                            <path d="M503,428L503,445" style="fill:none;stroke:black;stroke-width:0.97px;"/>
                        </g>
                        <g transform="matrix(1,0,0,1,24.4103,-2.9)">
                            <path d="M503,428L503,445" style="fill:none;stroke:black;stroke-width:0.97px;"/>
                        </g>
                    </g>
                    <g transform="matrix(0.665523,-0.562252,0.562252,0.665523,269.684,435.721)">
                        <path d="M503.379,425.011C503.379,422.797 505.177,421 507.391,421C509.605,421 511.403,422.797 511.403,425.011C511.403,422.797 513.2,421 515.414,421C517.628,421 519.426,422.797 519.426,425.011C519.426,422.797 521.223,421 523.437,421C525.651,421 527.449,422.797 527.449,425.011C527.449,422.797 529.246,421 531.46,421C533.674,421 535.471,422.797 535.471,425.011L535.471,445.989C535.471,446.049 535.47,446.109 535.467,446.169C535.47,446.279 535.471,446.389 535.471,446.5C535.471,455.607 526.444,463 515.324,463C504.204,463 495.176,455.607 495.176,446.5C495.176,446.37 495.178,446.241 495.182,446.112C495.178,446.041 495.176,445.97 495.176,445.898L495.176,425.102C495.176,422.838 497.014,421 499.278,421C501.512,421 503.331,422.789 503.379,425.011Z" style="fill:rgb(250,214,104);"/>
                        <g transform="matrix(1,0,0,1,0.4,-2.9)">
                            <path d="M503,428L503,445" style="fill:none;stroke:black;stroke-width:1.15px;"/>
                        </g>
                        <g transform="matrix(1,0,0,1,8.13676,-2.9)">
                            <path d="M503,428L503,445" style="fill:none;stroke:black;stroke-width:1.15px;"/>
                        </g>
                        <g transform="matrix(1,0,0,1,16.2735,-2.9)">
                            <path d="M503,428L503,445" style="fill:none;stroke:black;stroke-width:1.15px;"/>
                        </g>
                        <g transform="matrix(1,0,0,1,24.4103,-2.9)">
                            <path d="M503,428L503,445" style="fill:none;stroke:black;stroke-width:1.15px;"/>
                        </g>
                    </g>
                    <g transform="matrix(0.703453,0.748957,-0.748957,0.703453,882.166,-223.082)">
                        <path d="M503.379,425.011C503.379,422.797 505.177,421 507.391,421C509.605,421 511.403,422.797 511.403,425.011C511.403,422.797 513.2,421 515.414,421C517.628,421 519.426,422.797 519.426,425.011C519.426,422.797 521.223,421 523.437,421C525.651,421 527.449,422.797 527.449,425.011C527.449,422.797 529.246,421 531.46,421C533.674,421 535.471,422.797 535.471,425.011L535.471,445.989C535.471,446.049 535.47,446.109 535.467,446.169C535.47,446.279 535.471,446.389 535.471,446.5C535.471,455.607 526.444,463 515.324,463C504.204,463 495.176,455.607 495.176,446.5C495.176,446.37 495.178,446.241 495.182,446.112C495.178,446.041 495.176,445.97 495.176,445.898L495.176,425.102C495.176,422.838 497.014,421 499.278,421C501.512,421 503.331,422.789 503.379,425.011Z" style="fill:rgb(250,214,104);"/>
                        <g transform="matrix(1,0,0,1,0.4,-2.9)">
                            <path d="M503,428L503,445" style="fill:none;stroke:black;stroke-width:0.97px;"/>
                        </g>
                        <g transform="matrix(1,0,0,1,8.13676,-2.9)">
                            <path d="M503,428L503,445" style="fill:none;stroke:black;stroke-width:0.97px;"/>
                        </g>
                        <g transform="matrix(1,0,0,1,16.2735,-2.9)">
                            <path d="M503,428L503,445" style="fill:none;stroke:black;stroke-width:0.97px;"/>
                        </g>
                        <g transform="matrix(1,0,0,1,24.4103,-2.9)">
                            <path d="M503,428L503,445" style="fill:none;stroke:black;stroke-width:0.97px;"/>
                        </g>
                    </g>
                    <g transform="matrix(-0.992501,0.26594,-0.26594,-0.992501,1441.78,653.687)">
                        <path d="M503.379,425.011C503.379,422.797 505.177,421 507.391,421C509.605,421 511.403,422.797 511.403,425.011C511.403,422.797 513.2,421 515.414,421C517.628,421 519.426,422.797 519.426,425.011C519.426,422.797 521.223,421 523.437,421C525.651,421 527.449,422.797 527.449,425.011C527.449,422.797 529.246,421 531.46,421C533.674,421 535.471,422.797 535.471,425.011L535.471,445.989C535.471,446.049 535.47,446.109 535.467,446.169C535.47,446.279 535.471,446.389 535.471,446.5C535.471,455.607 526.444,463 515.324,463C504.204,463 495.176,455.607 495.176,446.5C495.176,446.37 495.178,446.241 495.182,446.112C495.178,446.041 495.176,445.97 495.176,445.898L495.176,425.102C495.176,422.838 497.014,421 499.278,421C501.512,421 503.331,422.789 503.379,425.011Z" style="fill:rgb(250,214,104);"/>
                        <g transform="matrix(1,0,0,1,0.4,-2.9)">
                            <path d="M503,428L503,445" style="fill:none;stroke:black;stroke-width:0.97px;"/>
                        </g>
                        <g transform="matrix(1,0,0,1,8.13676,-2.9)">
                            <path d="M503,428L503,445" style="fill:none;stroke:black;stroke-width:0.97px;"/>
                        </g>
                        <g transform="matrix(1,0,0,1,16.2735,-2.9)">
                            <path d="M503,428L503,445" style="fill:none;stroke:black;stroke-width:0.97px;"/>
                        </g>
                        <g transform="matrix(1,0,0,1,24.4103,-2.9)">
                            <path d="M503,428L503,445" style="fill:none;stroke:black;stroke-width:0.97px;"/>
                        </g>
                    </g>
                    <g transform="matrix(0.58547,0.844398,-0.844398,0.58547,844.926,-270.187)">
                        <path d="M503.379,425.011C503.379,422.797 505.177,421 507.391,421C509.605,421 511.403,422.797 511.403,425.011C511.403,422.797 513.2,421 515.414,421C517.628,421 519.426,422.797 519.426,425.011C519.426,422.797 521.223,421 523.437,421C525.651,421 527.449,422.797 527.449,425.011C527.449,422.797 529.246,421 531.46,421C533.674,421 535.471,422.797 535.471,425.011L535.471,445.989C535.471,446.049 535.47,446.109 535.467,446.169C535.47,446.279 535.471,446.389 535.471,446.5C535.471,455.607 526.444,463 515.324,463C504.204,463 495.176,455.607 495.176,446.5C495.176,446.37 495.178,446.241 495.182,446.112C495.178,446.041 495.176,445.97 495.176,445.898L495.176,425.102C495.176,422.838 497.014,421 499.278,421C501.512,421 503.331,422.789 503.379,425.011Z" style="fill:rgb(250,214,104);"/>
                        <g transform="matrix(1,0,0,1,0.4,-2.9)">
                            <path d="M503,428L503,445" style="fill:none;stroke:black;stroke-width:0.97px;"/>
                        </g>
                        <g transform="matrix(1,0,0,1,8.13676,-2.9)">
                            <path d="M503,428L503,445" style="fill:none;stroke:black;stroke-width:0.97px;"/>
                        </g>
                        <g transform="matrix(1,0,0,1,16.2735,-2.9)">
                            <path d="M503,428L503,445" style="fill:none;stroke:black;stroke-width:0.97px;"/>
                        </g>
                        <g transform="matrix(1,0,0,1,24.4103,-2.9)">
                            <path d="M503,428L503,445" style="fill:none;stroke:black;stroke-width:0.97px;"/>
                        </g>
                    </g>
                </g>
            </g>
            <path d="M935.5,393L1007,371L1007,460L935.5,481L935.5,393Z" style="fill:rgb(57,68,205);"/>
            <g>
                <path d="M1006,407C1006,407 1026.97,418.798 1040,433C1053.03,447.202 1067.71,474.791 1067,486C1066.29,497.209 1060.23,508 1047,508C1033.77,508 1026.07,497.31 1025,492C1023.93,486.69 1021.2,445 1021.2,445C1020.51,445.61 1019.68,446.099 1018.86,446.519C1016.49,447.736 1013.66,448.374 1011.02,447.784C1009.42,447.426 1007.99,446.612 1006.65,445.688C1002.83,443.047 1000.83,438.61 997.746,435.263C994.453,431.689 988.921,430.188 984.166,430.573C982.734,430.688 981.317,430.961 979.88,431.013C978.783,431.052 977.675,430.919 976.59,430.766C975.449,430.605 974.111,430.33 973.23,429.527C971.892,428.306 972.221,425.864 973.496,424.738C975.808,422.695 979.144,422.138 982.08,421.616C983.198,421.418 984.32,421.216 985.454,421.126C985.862,421.094 986.271,421.079 986.679,421.046C986.737,421.042 987.177,421.003 987.223,420.98C987.006,420.33 986.334,419.967 985.745,419.703C984.374,419.088 982.961,418.924 981.481,418.768C978.561,418.46 975.671,418.218 972.776,417.71C970.513,417.312 968.574,416.984 967.14,414.97C966.782,414.467 966.374,413.849 966.234,413.237C965.729,411.025 966.871,408.965 969.065,408.349C970.435,407.964 971.833,408.149 973.223,408.296C974.341,408.414 975.47,408.473 976.592,408.544C978.485,408.662 980.364,408.821 982.25,409.025C983.369,409.146 984.609,409.434 985.736,409.244C983.647,408.717 981.737,407.823 979.686,407.203C978.128,406.733 976.49,406.602 974.936,406.117C973.928,405.802 973.048,405.194 972.095,404.757C971.2,404.346 970.257,403.981 969.498,403.335C969.069,402.969 968.735,402.52 968.484,402.017C968.283,401.614 968.115,401.175 968.041,400.73C967.493,397.448 971.774,396.667 974.126,396.539C975.924,396.441 977.665,396.908 979.393,397.342C980.767,397.688 982.155,397.978 983.537,398.288C987.453,399.166 991.32,400.196 995.176,401.307C996.953,401.82 998.889,402.109 1000.56,402.935C1002.15,403.723 1003.48,404.925 1004.87,406.017" style="fill:rgb(247,116,137);"/>
                <g transform="matrix(1,0,0,1,1,-0.369111)">
                    <path d="M1020,446L1025.26,440.738" style="fill:none;stroke:black;stroke-width:1px;"/>
                </g>
            </g>
            <g transform="matrix(1,0,0,1.26676,-2.5,-93.8674)">
                <ellipse cx="946" cy="348.176" rx="8" ry="6.824" style="fill:rgb(247,116,137);"/>
            </g>
            <g transform="matrix(1,0,0,1,-1.34592,1.74619)">
                <clipPath id="_clip3">
                    <path d="M971.261,374.77L951.473,363.737L934.802,393.637L954.591,404.67L971.261,374.77Z"/>
                </clipPath>
                <g clip-path="url(#_clip3)">
                    <path d="M946.117,354.475C945.581,352.75 945.291,350.91 945.291,349C945.291,339.206 952.909,331.254 962.291,331.254C971.674,331.254 979.291,339.206 979.291,349C979.291,350.074 979.199,351.126 979.024,352.147C980.059,354.722 980.637,357.587 980.637,360.606C980.637,371.785 972.718,380.86 962.964,380.86C953.21,380.86 945.291,371.785 945.291,360.606C945.291,358.469 945.58,356.409 946.117,354.475Z" style="fill:rgb(112,0,20);"/>
                </g>
            </g>
            <g transform="matrix(1,0,0,1.26676,35.8604,-93.8674)">
                <ellipse cx="946" cy="348.176" rx="8" ry="6.824" style="fill:rgb(247,116,137);"/>
            </g>
            <g transform="matrix(1,0,0,1,2,1.41627)">
                <path d="M945.526,350.584L940,345.773" style="fill:none;stroke:white;stroke-opacity:0.42;stroke-width:1px;"/>
            </g>
            <g transform="matrix(-1,0,0,1,1923.4,1.41627)">
                <path d="M945.526,350.584L940,345.773" style="fill:none;stroke:white;stroke-opacity:0.42;stroke-width:1px;"/>
            </g>
            <path d="M946.117,354.475C945.581,352.75 946.452,350.91 946.452,349C946.452,339.206 952.909,331.254 962.291,331.254C971.674,331.254 979.291,339.206 979.291,349C979.291,350.074 979.199,351.126 979.024,352.147C980.059,354.722 980.637,357.587 980.637,360.606C980.637,371.785 972.718,380.86 962.964,380.86C953.21,380.86 945.291,371.785 945.291,360.606C945.291,358.469 945.58,356.409 946.117,354.475Z" style="fill:rgb(247,116,137);"/>
            <circle cx="954" cy="352" r="7" style="fill:none;stroke:white;stroke-width:1px;"/>
            <g transform="matrix(1,0,0,1,17.3459,0)">
                <circle cx="954" cy="352" r="7" style="fill:none;stroke:white;stroke-width:1px;"/>
            </g>
            <path d="M961,349L965,349" style="fill:none;stroke:white;stroke-width:1px;"/>
            <path d="M947,353L947,338.546" style="fill:none;stroke:white;stroke-width:1px;"/>
            <path d="M978.346,352L978.346,336" style="fill:none;stroke:white;stroke-width:1px;"/>
            <path d="M955.822,323.388C957.827,322.656 959.943,322.368 962.108,322.368C964.097,322.368 966.052,322.578 967.934,323.266C968.94,323.634 969.886,324.175 970.799,324.73C972.971,326.36 974.882,327.954 976.362,330.283C977.861,332.641 979.988,336.005 979.068,338.963C978.875,339.586 978.499,340.683 977.927,341.061C977.897,341.081 977.546,340.776 977.504,340.743C977.041,340.384 976.611,339.997 976.248,339.535C975.485,338.56 974.667,337.744 973.739,336.914C972.965,336.222 972.341,335.633 971.242,335.791C969.661,336.018 968.486,337.288 967.367,338.303C966.153,339.404 964.506,340.406 962.805,340.308C960.037,340.149 959.181,336.948 956.83,335.909C955.939,335.515 954.696,335.704 953.782,335.917C951.932,336.348 950.507,337.745 949.342,339.165C948.851,339.762 948.343,340.358 947.756,340.863C947.597,341 947.274,341.329 947.051,341.353C947.027,341.355 946.955,341.062 946.95,341.044C946.859,340.687 946.738,340.339 946.652,339.982C946.274,338.411 946.485,336.672 946.838,335.117C947.838,330.699 950.503,326.658 954.21,324.088C954.738,323.82 955.276,323.588 955.822,323.388Z"/>
            <path d="M962.871,350.584L962.871,361L960,359" style="fill:none;stroke:black;stroke-width:1px;"/>
            <g transform="matrix(1.70608,0,0,1.70608,-672.631,-251.658)">
                <circle cx="953.708" cy="355.708" r="0.708"/>
            </g>
            <g transform="matrix(1.70608,0,0,1.70608,-655.572,-251.658)">
                <circle cx="953.708" cy="355.708" r="0.708"/>
            </g>
            <g transform="matrix(1,0,0,1,2.5,-1)">
                <path d="M951.5,369C951.5,369 955.819,369.057 955.819,373.319" style="fill:none;stroke:black;stroke-width:1px;"/>
            </g>
        </g>
    </g>
</svg>
